<svg version="1.0" xmlns="http://www.w3.org/2000/svg" width="40" height="40" viewBox="0 0 800.000000 800.000000" preserveAspectRatio="xMidYMid meet">
  <g transform="translate(0.000000,800.000000) scale(0.100000,-0.100000)" fill="#FFFFFF" stroke="none">
    <path d="M2043 6091 c-100 -34 -171 -113 -193 -215 -8 -35 -10 -278 -8 -796 l3 -745 26 -56 c31 -66 84 -120 148 -151 l46 -23 1056 -5 1055 -5 41 -27 c26 -17 50 -45 67 -79 l26 -53 0 -530 c0 -495 -2 -534 -19 -572 -23 -51 -81 -99 -137 -113 -29 -8 -367 -11 -1085 -11 -1032 0 -1043 0 -1085 -21 -91 -44 -155 -159 -140 -252 15 -94 72 -173 151 -208 38 -18 115 -19 1735 -19 1583 0 1698 1 1743 17 67 24 121 73 154 141 l28 57 0 980 c0 975 0 980 -21 1026 -31 66 -78 114 -142 146 l-57 28 -1070 5 -1070 5 -37 23 c-49 31 -85 74 -98 120 -6 22 -10 167 -10 357 0 290 2 324 19 361 22 49 78 97 130 113 28 8 335 11 1107 11 l1069 0 51 24 c63 29 79 50 188 250 99 179 112 220 75 229 -13 4 -850 7 -1859 7 -1735 -1 -1838 -2 -1887 -19z"/>
  </g>
</svg>
