<svg version="1.0" xmlns="http://www.w3.org/2000/svg" width="40" height="40" viewBox="0 0 800.000000 800.000000" preserveAspectRatio="xMidYMid meet">
  
  <g transform="translate(0.000000,800.000000) scale(0.100000,-0.100000)" fill="#FFFFFF" stroke="none">
    <path d="M3544 6260 c-195 -3 -306 -9 -315 -16 -8 -6 -68 -53 -134 -105 l-120 -94 -375 -5 -375 -6 -200 -116 -200 -116 1 -93 c1 -52 9 -254 18 -449 76 -1650 25 -2794 -153 -3469 -30 -114 -29 -114 132 -107 73 4 332 11 577 16 245 6 573 15 730 20 157 6 575 19 930 30 901 28 1603 50 1679 53 86 3 93 15 57 96 -34 76 -70 218 -91 354 -33 224 -45 485 -55 1212 -21 1440 -48 2575 -61 2591 -10 12 -74 13 -449 8 l-438 -7 -69 53 c-37 30 -98 78 -134 107 l-66 53 -294 -2 c-162 -1 -429 -5 -595 -8z m860 -77 c4 -9 0 -23 -8 -31 -12 -12 -15 -11 -21 7 -11 35 16 58 29 24z m60 -74 c-3 -5 -10 -7 -15 -3 -5 3 -7 10 -3 15 3 5 10 7 15 3 5 -3 7 -10 3 -15z m1090 -372 c19 -815 27 -1248 36 -2001 10 -848 19 -1097 45 -1361 20 -192 60 -375 110 -497 8 -21 -39 -24 -515 -38 -567 -16 -1280 -39 -1910 -60 -322 -11 -633 -20 -691 -20 l-106 0 -2 72 c-2 82 -36 881 -51 1203 -6 116 -19 413 -30 660 -28 639 -54 1073 -90 1545 -17 220 -60 683 -66 711 l-5 26 197 6 c197 7 443 9 445 5 1 -2 7 -79 13 -172 10 -145 15 -170 31 -182 16 -12 163 -14 874 -14 l855 0 23 22 c18 17 23 32 23 73 0 29 3 107 7 173 l6 122 366 2 c201 2 380 4 397 5 l31 2 7 -282z m-2434 38 c0 -1 -12 0 -27 2 l-28 4 25 -15 c36 -23 143 -53 240 -70 l85 -14 -185 1 -185 2 -22 40 c-12 22 -26 59 -31 81 l-9 42 68 -35 c38 -19 69 -36 69 -38z m-922 -525 c4 -42 -12 -60 -28 -30 -14 26 -5 73 13 67 7 -2 13 -18 15 -37z m-83 -100 c0 -7 -6 -15 -12 -17 -8 -3 -13 4 -13 17 0 13 5 20 13 18 6 -3 12 -11 12 -18z m155 -101 c0 -28 -4 -39 -15 -39 -11 0 -15 11 -15 38 0 21 3 42 6 45 14 13 24 -6 24 -44z m-110 -19 c0 -11 -4 -20 -10 -20 -5 0 -10 9 -10 20 0 11 5 20 10 20 6 0 10 -9 10 -20z m-141 -2749 c34 -68 26 -76 -33 -36 -24 16 -36 20 -36 11 0 -15 70 -119 108 -158 31 -34 24 -44 -19 -29 -71 25 -76 9 -18 -54 47 -51 117 -87 264 -135 55 -18 109 -37 120 -41 11 -4 -65 -8 -170 -8 -104 -1 -248 -4 -319 -8 -93 -4 -127 -3 -122 5 14 23 66 303 92 491 14 108 28 203 31 211 3 8 20 -31 38 -87 19 -55 47 -129 64 -162z"/>
    <path d="M5265 5770 c-9 -14 -9 -75 0 -89 3 -6 13 -11 20 -11 30 0 33 102 3 108 -9 2 -19 -2 -23 -8z"/>
    <path d="M5380 5646 c-17 -22 -9 -80 13 -84 14 -3 17 4 17 42 0 49 -11 64 -30 42z"/>
    <path d="M5192 5538 c-14 -14 -16 -67 -3 -87 16 -25 41 -4 41 33 0 59 -14 78 -38 54z"/>
    <path d="M3170 5378 c-34 -18 -67 -71 -86 -136 -12 -42 -15 -85 -12 -174 l4 -119 -60 -51 c-34 -28 -96 -71 -138 -96 -53 -30 -78 -51 -78 -63 0 -28 35 -24 99 12 61 35 118 76 168 122 l33 30 14 -34 c25 -60 73 -116 118 -138 72 -34 106 -27 206 41 24 17 46 27 49 24 3 -3 -24 -76 -60 -163 -91 -220 -100 -263 -57 -263 13 0 23 18 40 68 12 37 47 124 77 194 l55 127 62 -5 c42 -4 74 -1 105 10 24 9 75 16 115 16 90 0 172 20 260 65 l70 35 30 -29 c74 -71 192 -92 259 -46 l37 24 47 -21 c99 -45 248 -25 348 46 57 41 127 132 123 160 -6 40 -36 30 -68 -23 -17 -28 -49 -64 -71 -82 -115 -91 -293 -92 -380 -3 -31 32 -34 40 -34 99 0 75 24 118 70 123 35 4 50 -16 29 -40 -19 -20 -15 -47 9 -62 15 -9 22 -7 38 13 34 41 22 114 -22 136 -61 32 -123 5 -159 -69 -30 -62 -26 -165 8 -213 18 -26 20 -33 8 -42 -45 -37 -149 -16 -205 41 l-31 31 27 35 c33 44 63 123 63 168 0 137 -154 139 -190 3 -13 -49 -6 -128 15 -169 16 -31 8 -44 -53 -74 -30 -16 -172 -56 -195 -56 -5 0 13 20 41 45 64 57 101 121 109 185 7 61 -10 106 -48 125 -69 36 -150 2 -253 -104 -45 -47 -66 -64 -62 -49 18 59 18 98 2 123 -44 67 -122 -17 -113 -120 2 -27 7 -57 11 -66 5 -12 -13 -37 -61 -86 -110 -113 -189 -140 -254 -86 -29 25 -79 112 -79 140 0 7 23 42 50 78 91 120 129 216 110 283 -18 69 -86 108 -140 80z m81 -69 c25 -48 -6 -141 -82 -247 l-38 -53 -7 46 c-12 85 9 201 47 249 25 32 64 34 80 5z m963 -145 c9 -8 16 -21 16 -28 0 -27 -31 -112 -50 -136 -17 -21 -21 -23 -30 -10 -13 21 -13 126 1 153 21 39 39 45 63 21z m-274 -34 c51 -51 -10 -180 -119 -249 -44 -29 -53 -31 -104 -25 -33 4 -68 2 -88 -5 -18 -6 -34 -10 -35 -8 -9 9 88 139 150 201 100 101 156 126 196 86z m-350 -77 c-11 -17 -11 -17 -6 0 3 10 7 26 7 35 1 15 2 15 6 0 2 -10 -1 -25 -7 -35z"/>
    <path d="M2803 4044 c-3 -8 -1 -20 4 -25 5 -5 457 -8 1169 -7 1151 3 1159 3 1159 23 0 20 -8 20 -1163 23 -1049 2 -1163 1 -1169 -14z"/>
    <path d="M3653 3614 c-3 -8 -1 -20 4 -25 5 -5 282 -8 709 -7 691 3 699 3 699 23 0 20 -8 20 -703 23 -631 2 -703 1 -709 -14z"/>
    <path d="M2934 3235 c-3 -8 -3 -19 1 -25 10 -16 951 -14 957 3 14 37 10 37 -478 37 -406 0 -475 -2 -480 -15z"/>
    <path d="M2870 2845 l0 -25 1078 2 c1069 3 1077 3 1077 23 0 20 -8 20 -1077 23 l-1078 2 0 -25z"/>
    <path d="M2604 2191 c4 -143 11 -272 15 -288 l8 -28 264 2 c145 1 338 5 429 9 l165 7 -153 28 c-173 31 -256 56 -352 104 -104 52 -105 60 -10 75 44 7 80 16 80 21 0 5 -9 9 -20 9 -67 0 -324 110 -304 130 5 5 38 10 74 12 l65 3 -55 29 c-61 32 -145 92 -174 125 -11 11 -24 21 -29 21 -7 0 -7 -90 -3 -259z"/>
    <path d="M3576 2421 c-4 -5 -3 -16 0 -25 6 -15 64 -16 603 -14 588 3 596 3 596 23 0 20 -8 20 -597 23 -354 1 -599 -2 -602 -7z"/>
    <path d="M6140 3505 c-84 -17 -142 -40 -208 -83 -47 -30 -102 -87 -102 -105 0 -3 30 7 68 23 66 28 191 64 198 58 6 -7 -128 -108 -192 -146 -35 -20 -64 -39 -63 -42 0 -3 28 -18 62 -34 34 -15 56 -30 49 -33 -7 -3 -51 -13 -98 -22 l-85 -17 68 -57 c37 -31 77 -63 88 -71 20 -15 20 -15 0 -16 -12 0 -47 7 -79 15 -33 9 -61 14 -63 11 -7 -7 59 -57 109 -82 91 -46 288 -84 288 -55 0 11 -98 101 -167 154 -29 22 -53 43 -53 48 0 5 88 9 195 9 107 0 195 3 195 8 0 4 -42 25 -93 46 -174 74 -227 99 -227 106 0 4 46 38 103 75 140 93 267 193 267 211 0 18 -165 18 -260 -1z"/>
  </g>
</svg>

