<svg width="16" height="16" viewBox="0 0 16 16" xmlns="http://www.w3.org/2000/svg">
  <path d="M6.2 5.3H4.6C3.5 5.3 2.6 6.2 2.6 7.3V8.7C2.6 9.8 3.5 10.7 4.6 10.7H6.2V12.2H4.6C2.7 12.2 1.1 10.6 1.1 8.7V7.3C1.1 5.4 2.7 3.8 4.6 3.8H6.2V5.3Z" fill="#6AAB73"/>
  <path d="M9.8 5.3H11.4C12.5 5.3 13.4 6.2 13.4 7.3V8.7C13.4 9.8 12.5 10.7 11.4 10.7H9.8V12.2H11.4C13.3 12.2 14.9 10.6 14.9 8.7V7.3C14.9 5.4 13.3 3.8 11.4 3.8H9.8V5.3Z" fill="#6AAB73"/>
  <rect x="5.1" y="7.2" width="5.8" height="1.6" rx="0.8" fill="#6AAB73"/>
</svg>
